<?xml version="1.0" encoding="utf-8"?>
<svg xmlns="http://www.w3.org/2000/svg" viewBox="0 0 500 500">
  <defs>
    <g/>
    <g/>
    <g/>
    <clipPath id="93e568b9fb">
      <rect x="0" width="294" y="0" height="280"/>
    </clipPath>
    <clipPath id="df43ebcff3">
      <path d="M 291.597656 114.378906 L 330.207031 114.378906 L 330.207031 183.203125 L 291.597656 183.203125 Z M 291.597656 114.378906 " clip-rule="nonzero"/>
    </clipPath>
    <clipPath id="cc00363f31">
      <path d="M 0.597656 0.378906 L 39.207031 0.378906 L 39.207031 69.203125 L 0.597656 69.203125 Z M 0.597656 0.378906 " clip-rule="nonzero"/>
    </clipPath>
    <clipPath id="ab52231a04">
      <rect x="0" width="40" y="0" height="70"/>
    </clipPath>
    <clipPath id="eaf3032d7c">
      <path d="M 259.128906 117.289062 L 303.117188 117.289062 L 303.117188 180.351562 L 259.128906 180.351562 Z M 259.128906 117.289062 " clip-rule="nonzero"/>
    </clipPath>
    <clipPath id="799ecf28b5">
      <path d="M 275.460938 117.289062 L 303.117188 117.289062 L 286.785156 180.292969 L 259.128906 180.292969 Z M 275.460938 117.289062 " clip-rule="nonzero"/>
    </clipPath>
    <clipPath id="7c1dc4a3fb">
      <path d="M 0.128906 0.289062 L 44.117188 0.289062 L 44.117188 63.351562 L 0.128906 63.351562 Z M 0.128906 0.289062 " clip-rule="nonzero"/>
    </clipPath>
    <clipPath id="fbf411a204">
      <path d="M 16.460938 0.289062 L 44.117188 0.289062 L 27.785156 63.292969 L 0.128906 63.292969 Z M 16.460938 0.289062 " clip-rule="nonzero"/>
    </clipPath>
    <clipPath id="6bad6c4ab9">
      <rect x="0" width="45" y="0" height="64"/>
    </clipPath>
  </defs>
  <g transform="matrix(1.691631, 0, 0, 1.691631, -11.789406, 57.261532)" style="">
    <g clip-path="url(#93e568b9fb)">
      <g fill="#000000" fill-opacity="1">
        <g transform="translate(0.222456, 203.850687)">
          <g>
            <path d="M 16.234375 0 L 16.234375 -135.3125 L 42.328125 -135.3125 L 90.46875 -65.140625 L 138.40625 -135.3125 L 164.3125 -135.3125 L 164.3125 0 L 133.765625 0 L 133.765625 -81.390625 L 100.90625 -33.4375 L 79.640625 -33.4375 L 46.78125 -81.578125 L 46.78125 0 Z M 16.234375 0 "/>
          </g>
        </g>
      </g>
      <g fill="#000000" fill-opacity="1">
        <g transform="translate(161.629738, 203.850687)">
          <g>
            <path d="M 71.531 2.703 C 59.801 2.703 49.711 0.352 41.266 -4.344 C 32.828 -9.051 26.32 -15.754 21.75 -24.453 C 17.176 -33.148 14.891 -43.555 14.891 -55.672 L 14.891 -135.312 L 45.625 -135.312 L 45.625 -57.797 C 45.625 -36.922 54.258 -26.484 71.531 -26.484 C 88.789 -26.484 97.422 -36.922 97.422 -57.797 L 97.725 -67.292 L 128.172 -67.292 L 128.172 -55.672 C 128.172 -43.555 125.879 -33.148 121.297 -24.453 C 116.723 -15.754 110.211 -9.051 101.766 -4.344 C 93.328 0.352 83.25 2.703 71.531 2.703 Z M 71.531 2.703"/>
          </g>
        </g>
      </g>
    </g>
  </g>
  <g clip-path="url(#df43ebcff3)" transform="matrix(1, 0, 0, 1, -21.103935, 111.525131)">
    <g transform="matrix(1, 0, 0, 1, 291, 114)">
      <g clip-path="url(#ab52231a04)">
        <g clip-path="url(#cc00363f31)"/>
      </g>
    </g>
  </g>
  <g clip-path="url(#eaf3032d7c)" transform="matrix(1.691631, 0, 0, 1.691631, -70.996498, -20.553492)" style="">
    <g clip-path="url(#799ecf28b5)">
      <g transform="matrix(1, 0, 0, 1, 259, 117)">
        <g clip-path="url(#6bad6c4ab9)">
          <g clip-path="url(#7c1dc4a3fb)">
            <g clip-path="url(#fbf411a204)">
              <path fill="#32caca" d="M 0.128906 0.289062 L 44.117188 0.289062 L 44.117188 63.351562 L 0.128906 63.351562 Z M 0.128906 0.289062 " fill-opacity="1" fill-rule="nonzero"/>
            </g>
          </g>
        </g>
      </g>
    </g>
  </g>
</svg>