<?xml version="1.0" encoding="utf-8"?>
<svg xmlns="http://www.w3.org/2000/svg" viewBox="0 0 500 500">
  <defs>
    <g/>
    <g/>
    <g/>
    <clipPath id="df43ebcff3">
      <path d="M 291.597656 114.378906 L 330.207031 114.378906 L 330.207031 183.203125 L 291.597656 183.203125 Z M 291.597656 114.378906 " clip-rule="nonzero"/>
    </clipPath>
    <clipPath id="cc00363f31">
      <path d="M 0.597656 0.378906 L 39.207031 0.378906 L 39.207031 69.203125 L 0.597656 69.203125 Z M 0.597656 0.378906 " clip-rule="nonzero"/>
    </clipPath>
    <clipPath id="ab52231a04">
      <rect x="0" width="40" y="0" height="70"/>
    </clipPath>
    <g/>
    <clipPath id="d5898e1dc7">
      <path d="M 99.988281 29.492188 L 114.902344 29.492188 L 114.902344 56.074219 L 99.988281 56.074219 Z M 99.988281 29.492188 " clip-rule="nonzero"/>
    </clipPath>
    <clipPath id="6f30bc23d6">
      <path d="M 0.988281 0.492188 L 15.902344 0.492188 L 15.902344 27.074219 L 0.988281 27.074219 Z M 0.988281 0.492188 " clip-rule="nonzero"/>
    </clipPath>
    <clipPath id="84f1b9a3eb">
      <rect x="0" width="16" y="0" height="28"/>
    </clipPath>
    <clipPath id="a7cffa9e78">
      <rect x="0" width="346" y="0" height="118"/>
    </clipPath>
    <g/>
    <clipPath id="fabfdbdaab">
      <path d="M 98.792969 29.417969 L 113.550781 29.417969 L 113.550781 55.722656 L 98.792969 55.722656 Z M 98.792969 29.417969 " clip-rule="nonzero"/>
    </clipPath>
    <clipPath id="b7278d6485">
      <path d="M 0.792969 0.417969 L 15.550781 0.417969 L 15.550781 26.722656 L 0.792969 26.722656 Z M 0.792969 0.417969 " clip-rule="nonzero"/>
    </clipPath>
    <clipPath id="4741e27503">
      <rect x="0" width="16" y="0" height="27"/>
    </clipPath>
    <clipPath id="78bf77c13a">
      <path d="M 86.382812 30.53125 L 103.195312 30.53125 L 103.195312 54.636719 L 86.382812 54.636719 Z M 86.382812 30.53125 " clip-rule="nonzero"/>
    </clipPath>
    <clipPath id="0784214bb7">
      <path d="M 92.625 30.53125 L 103.195312 30.53125 L 96.953125 54.613281 L 86.382812 54.613281 Z M 92.625 30.53125 " clip-rule="nonzero"/>
    </clipPath>
    <clipPath id="ce8b763322">
      <path d="M 0.382812 0.53125 L 17.195312 0.53125 L 17.195312 24.636719 L 0.382812 24.636719 Z M 0.382812 0.53125 " clip-rule="nonzero"/>
    </clipPath>
    <clipPath id="fec3e3e1dd">
      <path d="M 6.625 0.53125 L 17.195312 0.53125 L 10.953125 24.613281 L 0.382812 24.613281 Z M 6.625 0.53125 " clip-rule="nonzero"/>
    </clipPath>
    <clipPath id="91cb9359e7">
      <rect x="0" width="18" y="0" height="25"/>
    </clipPath>
    <clipPath id="0fc664d494">
      <rect x="0" width="342" y="0" height="117"/>
    </clipPath>
    <clipPath id="2ae1f69052">
      <path d="M 0.160156 3 L 7 3 L 7 11 L 0.160156 11 Z M 0.160156 3 " clip-rule="nonzero"/>
    </clipPath>
    <clipPath id="94b3da3a69">
      <rect x="0" width="162" y="0" height="14"/>
    </clipPath>
  </defs>
  <g clip-path="url(#df43ebcff3)" transform="matrix(1, 0, 0, 1, -21.103935, 111.525131)">
    <g transform="matrix(1, 0, 0, 1, 291, 114)">
      <g clip-path="url(#ab52231a04)">
        <g clip-path="url(#cc00363f31)"/>
      </g>
    </g>
  </g>
  <g transform="matrix(1.358206, 0, 0, 1.358206, 12.425581, 161.661636)" style="">
    <g clip-path="url(#a7cffa9e78)">
      <g clip-path="url(#d5898e1dc7)">
        <g transform="matrix(1, 0, 0, 1, 99, 29)">
          <g clip-path="url(#84f1b9a3eb)">
            <g clip-path="url(#6f30bc23d6)"/>
          </g>
        </g>
      </g>
      <g transform="matrix(0.997078, 0, 0, 0.997078, 2.084726, 3.495267)" style="">
        <g clip-path="url(#0fc664d494)">
          <g fill="#000000" fill-opacity="1">
            <g transform="translate(0.801714, 81.198931)">
              <g>
                <path d="M 6.203125 0 L 6.203125 -51.71875 L 16.1875 -51.71875 L 34.578125 -24.90625 L 52.90625 -51.71875 L 62.8125 -51.71875 L 62.8125 0 L 51.125 0 L 51.125 -31.109375 L 38.578125 -12.78125 L 30.4375 -12.78125 L 17.875 -31.1875 L 17.875 0 Z M 6.203125 0 "/>
              </g>
            </g>
          </g>
          <g fill="#000000" fill-opacity="1">
            <g transform="translate(62.494951, 81.198931)">
              <g>
                <path d="M 27.344 1.031 C 22.852 1.031 18.992 0.133 15.766 -1.656 C 12.547 -3.457 10.063 -6.02 8.313 -9.344 C 6.563 -12.664 5.688 -16.645 5.688 -21.281 L 5.688 -51.719 L 17.438 -51.719 L 17.438 -22.094 C 17.438 -14.113 20.738 -10.125 27.344 -10.125 C 33.938 -10.125 37.234 -14.113 37.234 -22.094 L 37.234 -25.335 L 48.984 -25.44 L 48.984 -21.281 C 48.984 -16.645 48.109 -12.664 46.359 -9.344 C 44.617 -6.02 42.133 -3.457 38.906 -1.656 C 35.676 0.133 31.82 1.031 27.344 1.031 Z M 27.344 1.031"/>
              </g>
            </g>
          </g>
          <g fill="#000000" fill-opacity="1">
            <g transform="translate(163.997934, 81.198931)">
              <g>
                <path d="M 18.625 0 L 18.625 -40.71875 L 2.21875 -40.71875 L 2.21875 -51.71875 L 46.765625 -51.71875 L 46.765625 -40.71875 L 30.375 -40.71875 L 30.375 0 Z M 18.625 0 "/>
              </g>
            </g>
          </g>
          <g fill="#000000" fill-opacity="1">
            <g transform="translate(205.66821, 81.198931)">
              <g>
                <path d="M 0.671875 0 L 21.203125 -51.71875 L 32.734375 -51.71875 L 53.28125 0 L 40.71875 0 L 37.234375 -8.9375 L 16.703125 -8.9375 L 13.21875 0 Z M 19.734375 -18.171875 L 34.28125 -18.171875 L 26.96875 -37.09375 Z M 19.734375 -18.171875 "/>
              </g>
            </g>
          </g>
          <g fill="#000000" fill-opacity="1">
            <g transform="translate(252.288809, 81.198931)">
              <g>
                <path d="M 6.203125 0 L 6.203125 -51.71875 L 38.640625 -51.71875 L 38.640625 -41.078125 L 17.953125 -41.078125 L 17.953125 -28.15625 L 36.71875 -28.15625 L 36.71875 -17.8125 L 17.953125 -17.8125 L 17.953125 0 Z M 6.203125 0 "/>
              </g>
            </g>
          </g>
          <g fill="#000000" fill-opacity="1">
            <g transform="translate(286.866073, 81.198931)">
              <g>
                <path d="M 0.671875 0 L 21.203125 -51.71875 L 32.734375 -51.71875 L 53.28125 0 L 40.71875 0 L 37.234375 -8.9375 L 16.703125 -8.9375 L 13.21875 0 Z M 19.734375 -18.171875 L 34.28125 -18.171875 L 26.96875 -37.09375 Z M 19.734375 -18.171875 "/>
              </g>
            </g>
          </g>
          <g fill="#000000" fill-opacity="1">
            <g transform="translate(125.601102, 89.296188)">
              <g>
                <path d="M 22.734375 -8.484375 C 18.742188 -6.796875 15.023438 -6 11.578125 -6.09375 C 8.140625 -6.195312 5.125 -7.128906 2.53125 -8.890625 C -0.0507812 -10.660156 -2.035156 -13.179688 -3.421875 -16.453125 L 7.1875 -20.9375 C 8.15625 -18.664062 9.691406 -17.222656 11.796875 -16.609375 C 13.898438 -15.992188 16.265625 -16.242188 18.890625 -17.359375 C 21.160156 -18.316406 22.765625 -19.515625 23.703125 -20.953125 C 24.648438 -22.398438 24.789062 -23.914062 24.125 -25.5 C 23.414062 -27.175781 22.046875 -28.203125 20.015625 -28.578125 C 17.984375 -28.960938 15.140625 -28.800781 11.484375 -28.09375 C 5.390625 -26.914062 0.492188 -26.96875 -3.203125 -28.25 C -6.898438 -29.53125 -9.5625 -32.097656 -11.1875 -35.953125 C -13.03125 -40.304688 -12.890625 -44.414062 -10.765625 -48.28125 C -8.648438 -52.144531 -4.847656 -55.234375 0.640625 -57.546875 C 4.398438 -59.140625 7.9375 -59.867188 11.25 -59.734375 C 14.570312 -59.609375 17.484375 -58.695312 19.984375 -57 C 22.492188 -55.3125 24.429688 -52.859375 25.796875 -49.640625 L 15.375 -45.234375 C 14.476562 -47.359375 13.066406 -48.738281 11.140625 -49.375 C 9.210938 -50.007812 7 -49.800781 4.5 -48.75 C 2.238281 -47.789062 0.640625 -46.585938 -0.296875 -45.140625 C -1.242188 -43.703125 -1.382812 -42.191406 -0.71875 -40.609375 C -0.09375 -39.148438 1.15625 -38.226562 3.03125 -37.84375 C 4.90625 -37.457031 7.832031 -37.601562 11.8125 -38.28125 C 18.351562 -39.382812 23.4375 -39.3125 27.0625 -38.0625 C 30.695312 -36.820312 33.304688 -34.320312 34.890625 -30.5625 C 36.796875 -26.0625 36.660156 -21.851562 34.484375 -17.9375 C 32.316406 -14.03125 28.398438 -10.878906 22.734375 -8.484375 Z M 22.734375 -8.484375 "/>
              </g>
            </g>
          </g>
          <g clip-path="url(#fabfdbdaab)">
            <g transform="matrix(1, 0, 0, 1, 98, 29)">
              <g clip-path="url(#4741e27503)">
                <g clip-path="url(#b7278d6485)"/>
              </g>
            </g>
          </g>
          <g clip-path="url(#78bf77c13a)">
            <g clip-path="url(#0784214bb7)">
              <g transform="matrix(1, 0, 0, 1, 86, 30)">
                <g clip-path="url(#91cb9359e7)">
                  <g clip-path="url(#ce8b763322)">
                    <g clip-path="url(#fec3e3e1dd)">
                      <path fill="#32caca" d="M 0.382812 0.53125 L 17.195312 0.53125 L 17.195312 24.636719 L 0.382812 24.636719 Z M 0.382812 0.53125 " fill-opacity="1" fill-rule="nonzero"/>
                    </g>
                  </g>
                </g>
              </g>
            </g>
          </g>
        </g>
      </g>
      <g transform="matrix(0.997078, 0, 0, 0.997078, 99.79837, 106.194298)" style="">
        <g clip-path="url(#94b3da3a69)">
          <g clip-path="url(#2ae1f69052)">
            <g fill="#32caca" fill-opacity="1">
              <g transform="translate(0.281348, 10.743408)">
                <g>
                  <path d="M 5.03125 -5.640625 C 4.976562 -6.015625 4.796875 -6.300781 4.484375 -6.5 C 4.171875 -6.707031 3.785156 -6.8125 3.328125 -6.8125 C 2.835938 -6.8125 2.4375 -6.691406 2.125 -6.453125 C 1.820312 -6.222656 1.671875 -5.925781 1.671875 -5.5625 C 1.671875 -5.300781 1.753906 -5.085938 1.921875 -4.921875 C 2.085938 -4.753906 2.28125 -4.625 2.5 -4.53125 C 2.726562 -4.4375 2.9375 -4.363281 3.125 -4.3125 L 3.890625 -4.109375 C 4.085938 -4.054688 4.304688 -3.984375 4.546875 -3.890625 C 4.785156 -3.804688 5.015625 -3.6875 5.234375 -3.53125 C 5.460938 -3.375 5.648438 -3.175781 5.796875 -2.9375 C 5.941406 -2.695312 6.015625 -2.398438 6.015625 -2.046875 C 6.015625 -1.640625 5.90625 -1.269531 5.6875 -0.9375 C 5.476562 -0.613281 5.171875 -0.351562 4.765625 -0.15625 C 4.359375 0.03125 3.867188 0.125 3.296875 0.125 C 2.484375 0.125 1.835938 -0.0625 1.359375 -0.4375 C 0.890625 -0.820312 0.632812 -1.320312 0.59375 -1.9375 L 1.53125 -1.9375 C 1.550781 -1.65625 1.644531 -1.421875 1.8125 -1.234375 C 1.976562 -1.046875 2.191406 -0.90625 2.453125 -0.8125 C 2.710938 -0.726562 2.992188 -0.6875 3.296875 -0.6875 C 3.640625 -0.6875 3.945312 -0.742188 4.21875 -0.859375 C 4.5 -0.972656 4.71875 -1.128906 4.875 -1.328125 C 5.039062 -1.535156 5.125 -1.78125 5.125 -2.0625 C 5.125 -2.3125 5.050781 -2.515625 4.90625 -2.671875 C 4.769531 -2.828125 4.585938 -2.953125 4.359375 -3.046875 C 4.140625 -3.148438 3.894531 -3.238281 3.625 -3.3125 L 2.703125 -3.578125 C 2.117188 -3.742188 1.65625 -3.984375 1.3125 -4.296875 C 0.96875 -4.609375 0.796875 -5.019531 0.796875 -5.53125 C 0.796875 -5.945312 0.910156 -6.3125 1.140625 -6.625 C 1.367188 -6.9375 1.675781 -7.179688 2.0625 -7.359375 C 2.445312 -7.535156 2.878906 -7.625 3.359375 -7.625 C 3.847656 -7.625 4.28125 -7.535156 4.65625 -7.359375 C 5.03125 -7.191406 5.328125 -6.957031 5.546875 -6.65625 C 5.773438 -6.363281 5.894531 -6.023438 5.90625 -5.640625 Z M 5.03125 -5.640625 "/>
                </g>
              </g>
            </g>
          </g>
          <g fill="#32caca" fill-opacity="1">
            <g transform="translate(13.614668, 10.743408)">
              <g>
                <path d="M 7.265625 -3.765625 C 7.265625 -2.972656 7.117188 -2.285156 6.828125 -1.703125 C 6.546875 -1.128906 6.15625 -0.679688 5.65625 -0.359375 C 5.15625 -0.046875 4.582031 0.109375 3.9375 0.109375 C 3.289062 0.109375 2.71875 -0.046875 2.21875 -0.359375 C 1.726562 -0.679688 1.335938 -1.128906 1.046875 -1.703125 C 0.753906 -2.285156 0.609375 -2.972656 0.609375 -3.765625 C 0.609375 -4.554688 0.753906 -5.238281 1.046875 -5.8125 C 1.335938 -6.394531 1.726562 -6.84375 2.21875 -7.15625 C 2.71875 -7.46875 3.289062 -7.625 3.9375 -7.625 C 4.582031 -7.625 5.15625 -7.46875 5.65625 -7.15625 C 6.15625 -6.84375 6.546875 -6.394531 6.828125 -5.8125 C 7.117188 -5.238281 7.265625 -4.554688 7.265625 -3.765625 Z M 6.375 -3.765625 C 6.375 -4.410156 6.265625 -4.957031 6.046875 -5.40625 C 5.835938 -5.851562 5.546875 -6.191406 5.171875 -6.421875 C 4.804688 -6.660156 4.394531 -6.78125 3.9375 -6.78125 C 3.476562 -6.78125 3.066406 -6.660156 2.703125 -6.421875 C 2.335938 -6.191406 2.046875 -5.851562 1.828125 -5.40625 C 1.609375 -4.957031 1.5 -4.410156 1.5 -3.765625 C 1.5 -3.109375 1.609375 -2.554688 1.828125 -2.109375 C 2.046875 -1.660156 2.335938 -1.320312 2.703125 -1.09375 C 3.066406 -0.863281 3.476562 -0.75 3.9375 -0.75 C 4.394531 -0.75 4.804688 -0.863281 5.171875 -1.09375 C 5.546875 -1.320312 5.835938 -1.660156 6.046875 -2.109375 C 6.265625 -2.554688 6.375 -3.109375 6.375 -3.765625 Z M 6.375 -3.765625 "/>
              </g>
            </g>
          </g>
          <g fill="#32caca" fill-opacity="1">
            <g transform="translate(28.226491, 10.743408)">
              <g>
                <path d="M 0.90625 0 L 0.90625 -7.515625 L 5.421875 -7.515625 L 5.421875 -6.71875 L 1.828125 -6.71875 L 1.828125 -4.171875 L 5.078125 -4.171875 L 5.078125 -3.359375 L 1.828125 -3.359375 L 1.828125 0 Z M 0.90625 0 "/>
              </g>
            </g>
          </g>
          <g fill="#32caca" fill-opacity="1">
            <g transform="translate(41.030781, 10.743408)">
              <g>
                <path d="M 0.5 -6.71875 L 0.5 -7.515625 L 6.140625 -7.515625 L 6.140625 -6.71875 L 3.78125 -6.71875 L 3.78125 0 L 2.859375 0 L 2.859375 -6.71875 Z M 0.5 -6.71875 "/>
              </g>
            </g>
          </g>
          <g fill="#32caca" fill-opacity="1">
            <g transform="translate(54.408185, 10.743408)">
              <g>
                <path d="M 2.28125 0 L 0.21875 -7.515625 L 1.140625 -7.515625 L 2.71875 -1.390625 L 2.796875 -1.390625 L 4.390625 -7.515625 L 5.421875 -7.515625 L 7.015625 -1.390625 L 7.09375 -1.390625 L 8.671875 -7.515625 L 9.59375 -7.515625 L 7.53125 0 L 6.59375 0 L 4.9375 -6 L 4.875 -6 L 3.21875 0 Z M 2.28125 0 "/>
              </g>
            </g>
          </g>
          <g fill="#32caca" fill-opacity="1">
            <g transform="translate(70.959791, 10.743408)">
              <g>
                <path d="M 1.21875 0 L 0.265625 0 L 3.03125 -7.515625 L 3.96875 -7.515625 L 6.734375 0 L 5.78125 0 L 5.015625 -2.125 L 1.96875 -2.125 Z M 2.265625 -2.9375 L 4.734375 -2.9375 L 3.53125 -6.328125 L 3.46875 -6.328125 Z M 2.265625 -2.9375 "/>
              </g>
            </g>
          </g>
          <g fill="#32caca" fill-opacity="1">
            <g transform="translate(84.68989, 10.743408)">
              <g>
                <path d="M 0.90625 0 L 0.90625 -7.515625 L 3.453125 -7.515625 C 4.035156 -7.515625 4.515625 -7.414062 4.890625 -7.21875 C 5.273438 -7.019531 5.554688 -6.742188 5.734375 -6.390625 C 5.921875 -6.046875 6.015625 -5.65625 6.015625 -5.21875 C 6.015625 -4.71875 5.898438 -4.28125 5.671875 -3.90625 C 5.441406 -3.539062 5.085938 -3.273438 4.609375 -3.109375 L 6.296875 0 L 5.25 0 L 3.65625 -2.9375 C 3.59375 -2.9375 3.53125 -2.9375 3.46875 -2.9375 L 1.828125 -2.9375 L 1.828125 0 Z M 1.828125 -3.765625 L 3.4375 -3.765625 C 4.039062 -3.765625 4.46875 -3.894531 4.71875 -4.15625 C 4.976562 -4.414062 5.109375 -4.769531 5.109375 -5.21875 C 5.109375 -5.664062 4.976562 -6.023438 4.71875 -6.296875 C 4.46875 -6.578125 4.035156 -6.71875 3.421875 -6.71875 L 1.828125 -6.71875 Z M 1.828125 -3.765625 "/>
              </g>
            </g>
          </g>
          <g fill="#32caca" fill-opacity="1">
            <g transform="translate(98.037904, 10.743408)">
              <g>
                <path d="M 0.90625 0 L 0.90625 -7.515625 L 5.453125 -7.515625 L 5.453125 -6.71875 L 1.828125 -6.71875 L 1.828125 -4.171875 L 5.21875 -4.171875 L 5.21875 -3.359375 L 1.828125 -3.359375 L 1.828125 -0.8125 L 5.515625 -0.8125 L 5.515625 0 Z M 0.90625 0 "/>
              </g>
            </g>
          </g>
          <g fill="#32caca" fill-opacity="1">
            <g transform="translate(110.959751, 10.743408)">
              <g/>
            </g>
          </g>
          <g fill="#32caca" fill-opacity="1">
            <g transform="translate(120.604533, 10.743408)">
              <g>
                <path d="M 3.234375 0 L 0.90625 0 L 0.90625 -7.515625 L 3.328125 -7.515625 C 4.066406 -7.515625 4.691406 -7.363281 5.203125 -7.0625 C 5.722656 -6.769531 6.117188 -6.34375 6.390625 -5.78125 C 6.671875 -5.21875 6.8125 -4.550781 6.8125 -3.78125 C 6.8125 -2.988281 6.671875 -2.3125 6.390625 -1.75 C 6.117188 -1.1875 5.710938 -0.753906 5.171875 -0.453125 C 4.640625 -0.148438 3.992188 0 3.234375 0 Z M 1.828125 -0.8125 L 3.171875 -0.8125 C 4.109375 -0.8125 4.800781 -1.078125 5.25 -1.609375 C 5.707031 -2.140625 5.9375 -2.863281 5.9375 -3.78125 C 5.9375 -4.6875 5.710938 -5.398438 5.265625 -5.921875 C 4.816406 -6.453125 4.15625 -6.71875 3.28125 -6.71875 L 1.828125 -6.71875 Z M 1.828125 -0.8125 "/>
              </g>
            </g>
          </g>
          <g fill="#32caca" fill-opacity="1">
            <g transform="translate(134.775494, 10.743408)">
              <g>
                <path d="M 0.90625 0 L 0.90625 -7.515625 L 5.453125 -7.515625 L 5.453125 -6.71875 L 1.828125 -6.71875 L 1.828125 -4.171875 L 5.21875 -4.171875 L 5.21875 -3.359375 L 1.828125 -3.359375 L 1.828125 -0.8125 L 5.515625 -0.8125 L 5.515625 0 Z M 0.90625 0 "/>
              </g>
            </g>
          </g>
          <g fill="#32caca" fill-opacity="1">
            <g transform="translate(147.697341, 10.743408)">
              <g>
                <path d="M 1.21875 -7.515625 L 3.453125 -1.1875 L 3.546875 -1.1875 L 5.78125 -7.515625 L 6.734375 -7.515625 L 3.96875 0 L 3.03125 0 L 0.265625 -7.515625 Z M 1.21875 -7.515625 "/>
              </g>
            </g>
          </g>
        </g>
      </g>
    </g>
  </g>
</svg>