<?xml version="1.0" encoding="utf-8"?>
<svg xmlns="http://www.w3.org/2000/svg" viewBox="0 0 500 500">
  <defs>
    <g/>
    <g/>
    <g/>
    <clipPath id="df43ebcff3">
      <path d="M 291.597656 114.378906 L 330.207031 114.378906 L 330.207031 183.203125 L 291.597656 183.203125 Z M 291.597656 114.378906 " clip-rule="nonzero"/>
    </clipPath>
    <clipPath id="cc00363f31">
      <path d="M 0.597656 0.378906 L 39.207031 0.378906 L 39.207031 69.203125 L 0.597656 69.203125 Z M 0.597656 0.378906 " clip-rule="nonzero"/>
    </clipPath>
    <clipPath id="ab52231a04">
      <rect x="0" width="40" y="0" height="70"/>
    </clipPath>
    <g/>
    <clipPath id="d5898e1dc7">
      <path d="M 99.988281 29.492188 L 114.902344 29.492188 L 114.902344 56.074219 L 99.988281 56.074219 Z M 99.988281 29.492188 " clip-rule="nonzero"/>
    </clipPath>
    <clipPath id="6f30bc23d6">
      <path d="M 0.988281 0.492188 L 15.902344 0.492188 L 15.902344 27.074219 L 0.988281 27.074219 Z M 0.988281 0.492188 " clip-rule="nonzero"/>
    </clipPath>
    <clipPath id="84f1b9a3eb">
      <rect x="0" width="16" y="0" height="28"/>
    </clipPath>
    <clipPath id="dddb855a5a">
      <path d="M 87.449219 30.617188 L 104.4375 30.617188 L 104.4375 54.972656 L 87.449219 54.972656 Z M 87.449219 30.617188 " clip-rule="nonzero"/>
    </clipPath>
    <clipPath id="9204417ff7">
      <path d="M 93.753906 30.617188 L 104.4375 30.617188 L 98.128906 54.949219 L 87.449219 54.949219 Z M 93.753906 30.617188 " clip-rule="nonzero"/>
    </clipPath>
    <clipPath id="75021493ab">
      <path d="M 0.449219 0.617188 L 17.4375 0.617188 L 17.4375 24.972656 L 0.449219 24.972656 Z M 0.449219 0.617188 " clip-rule="nonzero"/>
    </clipPath>
    <clipPath id="80da15a2cc">
      <path d="M 6.753906 0.617188 L 17.4375 0.617188 L 11.128906 24.949219 L 0.449219 24.949219 Z M 6.753906 0.617188 " clip-rule="nonzero"/>
    </clipPath>
    <clipPath id="9fdbdfa8a0">
      <rect x="0" width="18" y="0" height="25"/>
    </clipPath>
    <clipPath id="a7cffa9e78">
      <rect x="0" width="346" y="0" height="118"/>
    </clipPath>
  </defs>
  <g clip-path="url(#df43ebcff3)" transform="matrix(1, 0, 0, 1, -21.103935, 111.525131)">
    <g transform="matrix(1, 0, 0, 1, 291, 114)">
      <g clip-path="url(#ab52231a04)">
        <g clip-path="url(#cc00363f31)"/>
      </g>
    </g>
  </g>
  <g transform="matrix(1.358206, 0, 0, 1.358206, 12.425581, 161.661636)" style="">
    <g clip-path="url(#a7cffa9e78)">
      <g fill="#000000" fill-opacity="1">
        <g transform="translate(0.967462, 81.815746)">
          <g>
            <path d="M 6.265625 0 L 6.265625 -52.265625 L 16.359375 -52.265625 L 34.953125 -25.171875 L 53.46875 -52.265625 L 63.46875 -52.265625 L 63.46875 0 L 51.671875 0 L 51.671875 -31.4375 L 38.984375 -12.921875 L 30.765625 -12.921875 L 18.078125 -31.515625 L 18.078125 0 Z M 6.265625 0 "/>
          </g>
        </g>
      </g>
      <g fill="#000000" fill-opacity="1">
        <g transform="translate(63.308446, 81.815746)">
          <g>
            <path d="M 27.625 1.047 C 23.094 1.047 19.195 0.141 15.938 -1.672 C 12.676 -3.492 10.16 -6.082 8.391 -9.437 C 6.629 -12.801 5.75 -16.82 5.75 -21.5 L 5.75 -52.266 L 17.625 -52.266 L 17.625 -22.328 C 17.625 -14.266 20.957 -10.234 27.625 -10.234 C 34.301 -10.234 37.641 -14.266 37.641 -22.328 L 37.641 -25.821 L 49.5 -25.821 L 49.5 -21.5 C 49.5 -16.82 48.613 -12.801 46.844 -9.437 C 45.082 -6.082 42.57 -3.492 39.313 -1.672 C 36.051 0.141 32.156 1.047 27.625 1.047 Z M 27.625 1.047"/>
          </g>
        </g>
      </g>
      <g fill="#000000" fill-opacity="1">
        <g transform="translate(165.87715, 81.815746)">
          <g>
            <path d="M 18.8125 0 L 18.8125 -41.140625 L 2.234375 -41.140625 L 2.234375 -52.265625 L 47.265625 -52.265625 L 47.265625 -41.140625 L 30.6875 -41.140625 L 30.6875 0 Z M 18.8125 0 "/>
          </g>
        </g>
      </g>
      <g fill="#000000" fill-opacity="1">
        <g transform="translate(207.984943, 81.815746)">
          <g>
            <path d="M 0.671875 0 L 21.4375 -52.265625 L 33.078125 -52.265625 L 53.84375 0 L 41.140625 0 L 37.640625 -9.03125 L 16.875 -9.03125 L 13.359375 0 Z M 19.9375 -18.375 L 34.640625 -18.375 L 27.25 -37.484375 Z M 19.9375 -18.375 "/>
          </g>
        </g>
      </g>
      <g fill="#000000" fill-opacity="1">
        <g transform="translate(255.095034, 81.815746)">
          <g>
            <path d="M 6.265625 0 L 6.265625 -52.265625 L 39.046875 -52.265625 L 39.046875 -41.515625 L 18.140625 -41.515625 L 18.140625 -28.453125 L 37.109375 -28.453125 L 37.109375 -18 L 18.140625 -18 L 18.140625 0 Z M 6.265625 0 "/>
          </g>
        </g>
      </g>
      <g fill="#000000" fill-opacity="1">
        <g transform="translate(290.035342, 81.815746)">
          <g>
            <path d="M 0.671875 0 L 21.4375 -52.265625 L 33.078125 -52.265625 L 53.84375 0 L 41.140625 0 L 37.640625 -9.03125 L 16.875 -9.03125 L 13.359375 0 Z M 19.9375 -18.375 L 34.640625 -18.375 L 27.25 -37.484375 Z M 19.9375 -18.375 "/>
          </g>
        </g>
      </g>
      <g fill="#000000" fill-opacity="1">
        <g transform="translate(127.077191, 89.998021)">
          <g>
            <path d="M 22.96875 -8.5625 C 18.9375 -6.851562 15.179688 -6.046875 11.703125 -6.140625 C 8.222656 -6.242188 5.171875 -7.191406 2.546875 -8.984375 C -0.0664062 -10.773438 -2.070312 -13.320312 -3.46875 -16.625 L 7.28125 -21.15625 C 8.25 -18.863281 9.796875 -17.40625 11.921875 -16.78125 C 14.046875 -16.164062 16.4375 -16.421875 19.09375 -17.546875 C 21.382812 -18.515625 23.003906 -19.726562 23.953125 -21.1875 C 24.910156 -22.644531 25.050781 -24.175781 24.375 -25.78125 C 23.65625 -27.476562 22.269531 -28.515625 20.21875 -28.890625 C 18.175781 -29.265625 15.300781 -29.101562 11.59375 -28.40625 C 5.445312 -27.207031 0.507812 -27.253906 -3.21875 -28.546875 C -6.957031 -29.835938 -9.648438 -32.429688 -11.296875 -36.328125 C -13.148438 -40.734375 -13.007812 -44.882812 -10.875 -48.78125 C -8.75 -52.675781 -4.910156 -55.796875 0.640625 -58.140625 C 4.453125 -59.753906 8.03125 -60.5 11.375 -60.375 C 14.726562 -60.25 17.671875 -59.328125 20.203125 -57.609375 C 22.734375 -55.898438 24.6875 -53.414062 26.0625 -50.15625 L 15.546875 -45.71875 C 14.628906 -47.875 13.195312 -49.269531 11.25 -49.90625 C 9.3125 -50.539062 7.082031 -50.328125 4.5625 -49.265625 C 2.269531 -48.296875 0.648438 -47.082031 -0.296875 -45.625 C -1.253906 -44.175781 -1.390625 -42.644531 -0.703125 -41.03125 C -0.0859375 -39.5625 1.164062 -38.632812 3.0625 -38.25 C 4.957031 -37.863281 7.921875 -38.007812 11.953125 -38.6875 C 18.554688 -39.800781 23.691406 -39.726562 27.359375 -38.46875 C 31.023438 -37.207031 33.664062 -34.671875 35.28125 -30.859375 C 37.195312 -26.316406 37.054688 -22.066406 34.859375 -18.109375 C 32.660156 -14.160156 28.695312 -10.976562 22.96875 -8.5625 Z M 22.96875 -8.5625 "/>
          </g>
        </g>
      </g>
      <g clip-path="url(#d5898e1dc7)">
        <g transform="matrix(1, 0, 0, 1, 99, 29)">
          <g clip-path="url(#84f1b9a3eb)">
            <g clip-path="url(#6f30bc23d6)"/>
          </g>
        </g>
      </g>
      <g clip-path="url(#dddb855a5a)">
        <g clip-path="url(#9204417ff7)">
          <g transform="matrix(1, 0, 0, 1, 87, 30)">
            <g clip-path="url(#9fdbdfa8a0)">
              <g clip-path="url(#75021493ab)">
                <g clip-path="url(#80da15a2cc)">
                  <path fill="#32caca" d="M 0.449219 0.617188 L 17.4375 0.617188 L 17.4375 24.972656 L 0.449219 24.972656 Z M 0.449219 0.617188 " fill-opacity="1" fill-rule="nonzero"/>
                </g>
              </g>
            </g>
          </g>
        </g>
      </g>
    </g>
  </g>
</svg>